<svg width="1440" height="1255" viewBox="0 0 1440 1255" fill="none" xmlns="http://www.w3.org/2000/svg">
<g filter="url(#filter0_d_0_1)">
<path fill-rule="evenodd" clip-rule="evenodd" d="M390 345.5C390.021 345.52 390.018 345.532 389.993 345.535C389.973 345.489 389.975 345.477 390 345.5Z" fill="url(#paint0_linear_0_1)"/>
<path fill-rule="evenodd" clip-rule="evenodd" d="M627 632.5C627.381 632.469 627.762 632.439 628.141 632.408C627.741 632.468 627.36 632.499 627 632.5Z" fill="url(#paint1_linear_0_1)"/>
<path fill-rule="evenodd" clip-rule="evenodd" d="M254 345.535C254 345.368 254.316 345.603 254.924 346.212C254.317 346.03 254 345.806 254 345.535Z" fill="url(#paint2_linear_0_1)"/>
<path fill-rule="evenodd" clip-rule="evenodd" d="M840.897 1037.85C840.969 1037.88 840.947 1037.9 840.892 1037.84V1037.84C840.893 1037.84 840.895 1037.85 840.897 1037.85Z" fill="url(#paint3_linear_0_1)"/>
<path d="M542.412 756.889C546.278 749.36 554.073 751.562 556.466 759.68C573.941 818.969 637.046 1031.97 643.5 1038.18C643.242 1037.94 835.669 1035.74 840.892 1037.84C835.778 1032.69 658.065 802.296 636 773.684L573.5 706.684C557.379 691.179 551.768 689.564 527.391 706.078C526.807 706.474 526.241 706.926 525.725 707.407L447.081 780.684C334.275 919.709 272.717 1007.44 257.663 1031.33C255.124 1035.36 256.884 1038.09 261.641 1038.32C349.968 1042.56 407.711 1039.07 448.519 1037.93C474.421 1002.27 515.781 808.744 542.412 756.889Z" fill="black"/>
<path d="M716.999 345.5C716.999 350.403 604.155 513.607 563.364 569.736C557.793 577.401 546.577 577.022 541.251 569.184C505.253 516.206 391.122 348.164 389.993 345.535C345.588 341.648 264.465 349.079 254.924 346.212C270.802 362.112 486 632.5 486 632.5C496.464 635.011 517.788 654.69 524.459 661.035C525.82 662.33 527.405 663.366 529.165 664.023C546.986 670.677 557.979 670.829 573.558 665.287C577.367 663.932 581.826 662.676 585.028 660.209C594.65 652.794 613.722 633.57 627 632.5C627.381 632.469 627.762 632.439 628.141 632.408C642 630.356 866 351.035 866 345.5C866 339.965 716.999 340 716.999 345.5Z" fill="url(#paint4_linear_0_1)"/>
<path fill-rule="evenodd" clip-rule="evenodd" d="M274 632.5C266.268 632.5 260 638.768 260 646.5L260 766.5C260 790.801 279.699 810.5 304 810.5L390 810.5C417.173 807.981 425.077 801.131 447.081 780.684L525.725 707.407C526.241 706.926 526.807 706.474 527.391 706.078C551.768 689.564 557.379 691.179 573.5 706.684L636 773.684C657.227 795.109 678.357 805.502 702.5 810.5C717.215 813.546 767.675 812.879 804.839 811.894C828.421 811.268 847 791.88 847 768.289L847 646.405C847 638.674 840.763 632.407 833.033 632.405C784.846 632.393 628.48 632.358 628.141 632.408C627.741 632.468 627.36 632.499 627 632.5C613.722 633.57 594.65 652.794 585.028 660.209C581.826 662.676 577.367 663.932 573.558 665.287C557.979 670.829 546.986 670.677 529.165 664.023C527.405 663.366 525.82 662.33 524.459 661.035C517.788 654.69 496.464 635.011 486 632.5L274 632.5ZM301 732L301 677C301 669.268 307.268 663 315 663L474.5 663C480.851 663 486 668.149 486 674.5V674.5L486 679C486.174 693.304 486.173 712.26 486.057 721.259C486.03 723.393 485.899 725.622 484.669 727.366C477.298 737.819 442.086 771.687 426.389 776.291C425.468 776.561 424.516 776.623 423.556 776.606L314.759 774.737C307.122 774.605 301 768.377 301 760.739L301 732ZM814.511 676.97C814.505 669.243 808.239 663 800.512 663L641.491 663C634.018 663 627.862 668.87 627.507 676.335L627 687L628.012 726.916C628.096 730.2 629.323 733.342 631.507 735.796C638.484 743.632 654.665 761.641 664.2 770.927C668.1 774.725 673.479 779.057 678.842 779.99C702.232 784.06 771.676 782.203 801.093 781.189C808.594 780.931 814.492 774.765 814.485 767.259C814.472 753.032 814.46 732.528 814.5 732C814.543 731.426 814.525 696.967 814.511 676.97Z" fill="url(#paint5_linear_0_1)"/>
</g>
<path d="M505.209 739.348C504.567 739.348 504.02 739.174 503.569 738.824C503.117 738.472 502.772 737.962 502.533 737.294C502.295 736.624 502.175 735.814 502.175 734.866C502.175 733.922 502.295 733.117 502.533 732.449C502.775 731.779 503.121 731.268 503.573 730.915C504.028 730.56 504.573 730.383 505.209 730.383C505.846 730.383 506.39 730.56 506.841 730.915C507.296 731.268 507.643 731.779 507.881 732.449C508.123 733.117 508.243 733.922 508.243 734.866C508.243 735.814 508.124 736.624 507.885 737.294C507.647 737.962 507.302 738.472 506.85 738.824C506.398 739.174 505.851 739.348 505.209 739.348ZM505.209 738.411C505.846 738.411 506.34 738.104 506.692 737.491C507.045 736.877 507.221 736.002 507.221 734.866C507.221 734.11 507.14 733.466 506.978 732.935C506.819 732.404 506.589 731.999 506.287 731.721C505.989 731.442 505.63 731.303 505.209 731.303C504.579 731.303 504.086 731.614 503.731 732.236C503.376 732.856 503.198 733.732 503.198 734.866C503.198 735.621 503.278 736.263 503.437 736.792C503.596 737.32 503.824 737.722 504.123 737.998C504.424 738.273 504.786 738.411 505.209 738.411ZM512.709 739.348C512.067 739.348 511.52 739.174 511.069 738.824C510.617 738.472 510.272 737.962 510.033 737.294C509.795 736.624 509.675 735.814 509.675 734.866C509.675 733.922 509.795 733.117 510.033 732.449C510.275 731.779 510.621 731.268 511.073 730.915C511.528 730.56 512.073 730.383 512.709 730.383C513.346 730.383 513.89 730.56 514.341 730.915C514.796 731.268 515.143 731.779 515.381 732.449C515.623 733.117 515.743 733.922 515.743 734.866C515.743 735.814 515.624 736.624 515.385 737.294C515.147 737.962 514.802 738.472 514.35 738.824C513.898 739.174 513.351 739.348 512.709 739.348ZM512.709 738.411C513.346 738.411 513.84 738.104 514.192 737.491C514.545 736.877 514.721 736.002 514.721 734.866C514.721 734.11 514.64 733.466 514.478 732.935C514.319 732.404 514.089 731.999 513.787 731.721C513.489 731.442 513.13 731.303 512.709 731.303C512.079 731.303 511.586 731.614 511.231 732.236C510.876 732.856 510.698 733.732 510.698 734.866C510.698 735.621 510.778 736.263 510.937 736.792C511.096 737.32 511.324 737.722 511.623 737.998C511.924 738.273 512.286 738.411 512.709 738.411ZM520.209 739.348C519.567 739.348 519.02 739.174 518.569 738.824C518.117 738.472 517.772 737.962 517.533 737.294C517.295 736.624 517.175 735.814 517.175 734.866C517.175 733.922 517.295 733.117 517.533 732.449C517.775 731.779 518.121 731.268 518.573 730.915C519.028 730.56 519.573 730.383 520.209 730.383C520.846 730.383 521.39 730.56 521.841 730.915C522.296 731.268 522.643 731.779 522.881 732.449C523.123 733.117 523.243 733.922 523.243 734.866C523.243 735.814 523.124 736.624 522.885 737.294C522.647 737.962 522.302 738.472 521.85 738.824C521.398 739.174 520.851 739.348 520.209 739.348ZM520.209 738.411C520.846 738.411 521.34 738.104 521.692 737.491C522.045 736.877 522.221 736.002 522.221 734.866C522.221 734.11 522.14 733.466 521.978 732.935C521.819 732.404 521.589 731.999 521.287 731.721C520.989 731.442 520.63 731.303 520.209 731.303C519.579 731.303 519.086 731.614 518.731 732.236C518.376 732.856 518.198 733.732 518.198 734.866C518.198 735.621 518.278 736.263 518.437 736.792C518.596 737.32 518.824 737.722 519.123 737.998C519.424 738.273 519.786 738.411 520.209 738.411ZM527.709 739.348C527.067 739.348 526.52 739.174 526.069 738.824C525.617 738.472 525.272 737.962 525.033 737.294C524.795 736.624 524.675 735.814 524.675 734.866C524.675 733.922 524.795 733.117 525.033 732.449C525.275 731.779 525.621 731.268 526.073 730.915C526.528 730.56 527.073 730.383 527.709 730.383C528.346 730.383 528.89 730.56 529.341 730.915C529.796 731.268 530.143 731.779 530.381 732.449C530.623 733.117 530.743 733.922 530.743 734.866C530.743 735.814 530.624 736.624 530.385 737.294C530.147 737.962 529.802 738.472 529.35 738.824C528.898 739.174 528.351 739.348 527.709 739.348ZM527.709 738.411C528.346 738.411 528.84 738.104 529.192 737.491C529.545 736.877 529.721 736.002 529.721 734.866C529.721 734.11 529.64 733.466 529.478 732.935C529.319 732.404 529.089 731.999 528.787 731.721C528.489 731.442 528.13 731.303 527.709 731.303C527.079 731.303 526.586 731.614 526.231 732.236C525.876 732.856 525.698 733.732 525.698 734.866C525.698 735.621 525.778 736.263 525.937 736.792C526.096 737.32 526.324 737.722 526.623 737.998C526.924 738.273 527.286 738.411 527.709 738.411ZM535.209 739.348C534.567 739.348 534.02 739.174 533.569 738.824C533.117 738.472 532.772 737.962 532.533 737.294C532.295 736.624 532.175 735.814 532.175 734.866C532.175 733.922 532.295 733.117 532.533 732.449C532.775 731.779 533.121 731.268 533.573 730.915C534.028 730.56 534.573 730.383 535.209 730.383C535.846 730.383 536.39 730.56 536.841 730.915C537.296 731.268 537.643 731.779 537.881 732.449C538.123 733.117 538.243 733.922 538.243 734.866C538.243 735.814 538.124 736.624 537.885 737.294C537.647 737.962 537.302 738.472 536.85 738.824C536.398 739.174 535.851 739.348 535.209 739.348ZM535.209 738.411C535.846 738.411 536.34 738.104 536.692 737.491C537.045 736.877 537.221 736.002 537.221 734.866C537.221 734.11 537.14 733.466 536.978 732.935C536.819 732.404 536.589 731.999 536.287 731.721C535.989 731.442 535.63 731.303 535.209 731.303C534.579 731.303 534.086 731.614 533.731 732.236C533.376 732.856 533.198 733.732 533.198 734.866C533.198 735.621 533.278 736.263 533.437 736.792C533.596 737.32 533.824 737.722 534.123 737.998C534.424 738.273 534.786 738.411 535.209 738.411ZM542.709 739.348C542.067 739.348 541.52 739.174 541.069 738.824C540.617 738.472 540.272 737.962 540.033 737.294C539.795 736.624 539.675 735.814 539.675 734.866C539.675 733.922 539.795 733.117 540.033 732.449C540.275 731.779 540.621 731.268 541.073 730.915C541.528 730.56 542.073 730.383 542.709 730.383C543.346 730.383 543.89 730.56 544.341 730.915C544.796 731.268 545.143 731.779 545.381 732.449C545.623 733.117 545.743 733.922 545.743 734.866C545.743 735.814 545.624 736.624 545.385 737.294C545.147 737.962 544.802 738.472 544.35 738.824C543.898 739.174 543.351 739.348 542.709 739.348ZM542.709 738.411C543.346 738.411 543.84 738.104 544.192 737.491C544.545 736.877 544.721 736.002 544.721 734.866C544.721 734.11 544.64 733.466 544.478 732.935C544.319 732.404 544.089 731.999 543.787 731.721C543.489 731.442 543.13 731.303 542.709 731.303C542.079 731.303 541.586 731.614 541.231 732.236C540.876 732.856 540.698 733.732 540.698 734.866C540.698 735.621 540.778 736.263 540.937 736.792C541.096 737.32 541.324 737.722 541.623 737.998C541.924 738.273 542.286 738.411 542.709 738.411Z" fill="black"/>
<defs>
<filter id="filter0_d_0_1" x="245" y="340.362" width="630" height="717.001" filterUnits="userSpaceOnUse" color-interpolation-filters="sRGB">
<feFlood flood-opacity="0" result="BackgroundImageFix"/>
<feColorMatrix in="SourceAlpha" type="matrix" values="0 0 0 0 0 0 0 0 0 0 0 0 0 0 0 0 0 0 127 0" result="hardAlpha"/>
<feOffset dy="8"/>
<feGaussianBlur stdDeviation="4.5"/>
<feComposite in2="hardAlpha" operator="out"/>
<feColorMatrix type="matrix" values="0 0 0 0 0 0 0 0 0 0 0 0 0 0 0 0 0 0 0.47 0"/>
<feBlend mode="normal" in2="BackgroundImageFix" result="effect1_dropShadow_0_1"/>
<feBlend mode="normal" in="SourceGraphic" in2="effect1_dropShadow_0_1" result="shape"/>
</filter>
<linearGradient id="paint0_linear_0_1" x1="552.419" y1="296.888" x2="552.419" y2="1053.76" gradientUnits="userSpaceOnUse">
<stop stop-color="#4B0437"/>
<stop offset="1" stop-color="#192C8F"/>
</linearGradient>
<linearGradient id="paint1_linear_0_1" x1="552.419" y1="296.888" x2="552.419" y2="1053.76" gradientUnits="userSpaceOnUse">
<stop stop-color="#4B0437"/>
<stop offset="1" stop-color="#192C8F"/>
</linearGradient>
<linearGradient id="paint2_linear_0_1" x1="552.419" y1="296.888" x2="552.419" y2="1053.76" gradientUnits="userSpaceOnUse">
<stop stop-color="#4B0437"/>
<stop offset="1" stop-color="#192C8F"/>
</linearGradient>
<linearGradient id="paint3_linear_0_1" x1="552.419" y1="296.888" x2="552.419" y2="1053.76" gradientUnits="userSpaceOnUse">
<stop stop-color="#4B0437"/>
<stop offset="1" stop-color="#192C8F"/>
</linearGradient>
<linearGradient id="paint4_linear_0_1" x1="552.419" y1="296.888" x2="552.419" y2="1053.76" gradientUnits="userSpaceOnUse">
<stop/>
<stop offset="1" stop-color="#081764"/>
</linearGradient>
<linearGradient id="paint5_linear_0_1" x1="209" y1="691" x2="914.5" y2="691" gradientUnits="userSpaceOnUse">
<stop stop-color="white"/>
<stop offset="0.339546" stop-color="#200438"/>
<stop offset="0.595063" stop-color="#3A025C"/>
<stop offset="1" stop-color="white"/>
</linearGradient>
</defs>
</svg>
